<?xml version="1.0" standalone="no"?>
<!DOCTYPE svg PUBLIC "-//W3C//DTD SVG 20010904//EN"
 "http://www.w3.org/TR/2001/REC-SVG-20010904/DTD/svg10.dtd">
<svg version="1.0" xmlns="http://www.w3.org/2000/svg"
 width="100.000000pt" height="100.000000pt" viewBox="0 0 100.000000 100.000000"
 preserveAspectRatio="xMidYMid meet">

<g transform="translate(0.000000,100.000000) scale(0.100000,-0.100000)"
fill="#1C64F2" stroke="none">
<path d="M540 884 c-86 -37 -119 -94 -131 -226 -12 -131 -32 -191 -81 -244
-51 -55 -115 -78 -206 -72 l-66 4 55 -49 c66 -59 173 -113 254 -129 71 -13 71
-13 56 -31 -19 -23 62 -50 108 -36 30 9 45 7 90 -10 l53 -20 29 31 c15 17 26
36 22 41 -3 5 -26 17 -51 28 l-46 20 30 18 c47 29 105 99 134 165 29 65 60
185 60 235 0 25 8 36 50 64 l51 34 -55 24 c-30 13 -59 33 -64 44 -19 40 -67
88 -107 106 -49 23 -137 24 -185 3z m210 -143 c15 -30 12 -56 -10 -76 -27 -25
-71 -10 -84 27 -8 22 -6 32 9 48 23 26 71 26 85 1z"/>
</g>
</svg>
