<svg xmlns="http://www.w3.org/2000/svg" width="100" height="100" viewBox="0 0 100 100">
  <rect width="100" height="100" rx="22" fill="#18181b"></rect>
  <g transform="translate(9.00 17.02) scale(0.6673)">
    <path fill-rule="evenodd" clip-rule="evenodd" fill="#ffffff" d="M110.18,6.26l10.9,4.72c1.97,0.89,2.82,1.07-0.07,1.94l-9.56,2.87c-0.45,2.36-1.03,4.89-1.01,7.71 c0.02,2.25,0.37,4.44,0.89,6.61c1.29,23.23-11.12,36.41-34.63,41.43c0.05,0.14,0.09,0.29,0.11,0.44l1.94,11.52h8.19 c1.41,0,2.56,1.15,2.56,2.56c0,1.41-1.15,2.56-2.56,2.56H70.02c-1.41,0-2.56-1.15-2.56-2.56c0-1.41,1.15-2.56,2.56-2.56h3.55 l-1.8-10.68c-0.05-0.31-0.05-0.61,0.01-0.89c-9.89-0.2-18.75,0.76-26.53,2.94c-14.24,4-20.9,10.76-29.92,19.86 c-3.52,3.55-3.57,5.16-8.69,3.33C5.21,97.56,4.03,96.86,3.09,96c-2.1-1.92-3.02-4.66-3.09-7.97c10.98-5.69,20.77-12.96,29.35-21.84 c9.81-0.47,22.76-0.91,31.21-5.63c9.69-5.41,15.2-14.62,22.79-24.92c0.89-1.84,1.07-2.82,0.7-3.13c-1.54-1.27-6.94,5.31-7.91,6.45 c-6.25,7.43-12.63,15.79-21.27,19.22c-5.15,2.04-14.72,2.9-21.14,3.22c0.57-0.66,1.13-1.32,1.69-2 c13.13-17.06,40.78-36.37,47.93-49.25C87.7-3.44,104.38-1.97,110.18,6.26L110.18,6.26z"></path>
    <circle cx="99.8" cy="9.74" r="3" fill="#18181b"></circle>
  </g>
</svg>