<?xml version="1.0" standalone="no"?>
<!DOCTYPE svg PUBLIC "-//W3C//DTD SVG 20010904//EN"
 "http://www.w3.org/TR/2001/REC-SVG-20010904/DTD/svg10.dtd">
<svg version="1.0" xmlns="http://www.w3.org/2000/svg"
 width="700.000000pt" height="700.000000pt" viewBox="0 0 700.000000 700.000000"
 preserveAspectRatio="xMidYMid meet">
<metadata>
Created by potrace 1.14, written by Peter Selinger 2001-2017
</metadata>
<g transform="translate(0.000000,700.000000) scale(0.100000,-0.100000)"
fill="#000000" stroke="none">
<path d="M4337 6294 c-1 -1 -45 -4 -97 -8 -227 -14 -383 -56 -575 -152 -256
-129 -439 -303 -563 -534 -68 -128 -151 -380 -177 -540 -3 -19 -8 -42 -10 -50
-2 -8 -7 -35 -10 -60 -3 -25 -8 -56 -10 -70 -7 -47 -14 -105 -20 -165 -3 -33
-8 -76 -10 -95 -2 -19 -7 -64 -10 -100 -3 -36 -10 -99 -15 -140 -5 -41 -12
-97 -15 -125 -4 -27 -9 -63 -11 -80 -3 -16 -7 -46 -10 -65 -2 -19 -8 -57 -14
-85 -5 -27 -12 -66 -15 -85 -35 -208 -117 -470 -200 -638 -41 -83 -145 -250
-176 -282 -8 -8 -32 -37 -53 -64 -86 -106 -255 -255 -381 -334 -93 -58 -304
-150 -385 -167 -8 -2 -45 -11 -81 -19 -70 -17 -194 -36 -269 -42 -60 -4 -355
-4 -400 0 -32 4 -92 7 -350 22 l-85 4 30 -26 c17 -14 50 -45 75 -68 143 -132
390 -344 488 -417 278 -209 652 -418 995 -555 239 -96 437 -153 712 -204 234
-44 305 -68 305 -104 0 -11 -16 -41 -35 -65 -49 -61 -47 -97 5 -144 149 -136
495 -192 758 -123 215 56 299 41 771 -139 l204 -78 71 75 c189 198 263 298
291 395 10 36 -42 75 -205 154 -80 39 -152 74 -160 78 -8 4 -81 36 -162 71
-82 34 -148 66 -148 69 0 3 33 24 72 46 263 147 486 349 714 645 62 81 184
259 184 270 0 4 8 18 18 31 11 13 42 67 69 119 168 314 343 855 447 1381 37
185 42 224 51 359 10 155 15 194 25 204 6 6 10 16 10 24 0 15 51 85 85 116 68
62 151 122 405 289 80 53 153 103 163 111 23 17 31 12 -138 86 -357 154 -456
207 -586 314 -47 39 -75 72 -99 118 -143 271 -444 570 -705 700 -106 54 -280
104 -422 122 -76 10 -340 25 -346 20z m746 -990 c109 -23 182 -108 217 -254
37 -154 -8 -296 -127 -401 -112 -98 -286 -103 -419 -13 -82 56 -130 120 -168
229 -37 104 -31 177 17 248 77 111 185 181 307 200 34 5 134 0 173 -9z"/>
</g>
</svg>
